<svg version="1.1" xmlns="http://www.w3.org/2000/svg" xmlns:xlink="http://www.w3.org/1999/xlink" x="0px" y="0px" width="53.479px" height="30.733px" viewBox="0 0 53.479 30.733" enable-background="new 0 0 53.479 30.733" xml:space="preserve">
    <path d="M47.681,21.284c4.287,3.979,5.181,5.899,5.313,6.151c1.777,2.935-1.95,3.171-1.95,3.171
    l-7.15,0.101c0,0-1.541,0.293-3.551-1.086c-2.672-1.834-5.196-6.606-7.162-5.974c-1.984,0.631-1.924,4.918-1.924,4.918
    s0.015,0.616-0.44,1.101c-0.5,0.526-1.454,0.319-1.454,0.319h-3.198c0,0-7.06,0.736-13.271-5.738
    C6.131,17.203,0.142,3.35,0.142,3.35s-0.338-0.838,0.03-1.293c0.425-0.5,1.571-0.485,1.571-0.485l7.646-0.03
    c0,0,0.718,0.132,1.232,0.5c0.425,0.323,0.661,0.909,0.661,0.909s1.232,3.126,2.874,5.944c3.186,5.52,4.667,6.722,5.753,6.136
    c1.586-0.864,1.116-7.793,1.116-7.793s0.03-2.525-0.804-3.641c-0.631-0.864-1.837-1.131-2.363-1.187
    c-0.443-0.06,0.263-1.06,1.187-1.514c1.379-0.673,3.802-0.703,6.677-0.673c2.232,0.011,2.878,0.162,3.742,0.364
    c2.645,0.631,1.747,3.096,1.747,8.984c0,1.894-0.338,4.55,1.014,5.429c0.586,0.368,2.025,0.06,5.606-6.031
    c1.687-2.878,2.965-6.267,2.965-6.267s0.278-0.601,0.706-0.868c0.44-0.263,1.041-0.177,1.041-0.177l8.045-0.056
    c0,0,2.42-0.278,2.818,0.808c0.41,1.142-0.913,3.814-4.201,8.187C43.807,17.804,43.205,17.132,47.681,21.284"/>
</svg>