<svg version="1.1" xmlns="http://www.w3.org/2000/svg" xmlns:xlink="http://www.w3.org/1999/xlink" x="0px" y="0px" width="30.474px" height="30.733px" viewBox="0 0 30.474 30.733" enable-background="new 0 0 30.474 30.733" xml:space="preserve">
    <path fill-rule="evenodd" clip-rule="evenodd" d="M3.912,0.138h22.651c2.152,0,3.911,1.76,3.911,3.912v22.652
    c0,2.151-1.759,3.912-3.911,3.912H3.912C1.76,30.613,0,28.852,0,26.701V4.049C0,1.898,1.76,0.138,3.912,0.138L3.912,0.138z
    M22.199,3.524c-0.755,0-1.372,0.617-1.372,1.372V8.18c0,0.755,0.616,1.372,1.372,1.372h3.444c0.755,0,1.372-0.617,1.372-1.372
    V4.896c0-0.755-0.617-1.372-1.372-1.372H22.199L22.199,3.524z M27.031,13.025h-2.682c0.253,0.829,0.39,1.706,0.39,2.615
    c0,5.069-4.241,9.177-9.472,9.177c-5.231,0-9.472-4.109-9.472-9.177c0-0.909,0.137-1.786,0.391-2.615H3.386v12.873
    c0,0.667,0.545,1.212,1.211,1.212h21.221c0.667,0,1.212-0.545,1.212-1.212V13.025L27.031,13.025z M15.266,9.379
    c-3.38,0-6.12,2.655-6.12,5.93s2.74,5.93,6.12,5.93c3.38,0,6.12-2.655,6.12-5.93S18.647,9.379,15.266,9.379z"/>
</svg>