<svg version="1.1" xmlns="http://www.w3.org/2000/svg" xmlns:xlink="http://www.w3.org/1999/xlink" x="0px" y="0px" width="23.972px" height="30.733px" viewBox="0 0 23.972 30.733" enable-background="new 0 0 23.972 30.733" xml:space="preserve">
    <path d="M9.854,20.38c-0.81,4.242-1.797,8.309-4.724,10.433
    c-0.904-6.411,1.327-11.227,2.362-16.339c-1.766-2.972,0.213-8.955,3.937-7.48c4.583,1.812-3.968,11.051,1.773,12.205
    c5.994,1.204,8.44-10.4,4.724-14.174C12.555-0.424,2.293,4.901,3.554,12.703c0.307,1.907,2.278,2.485,0.788,5.118
    c-3.437-0.762-4.463-3.473-4.332-7.087C0.224,4.819,5.326,0.676,10.445,0.104c6.472-0.725,12.547,2.376,13.386,8.465
    c0.945,6.873-2.922,14.316-9.842,13.78C12.112,22.203,11.325,21.274,9.854,20.38"/>
</svg>