<svg version="1.1" xmlns="http://www.w3.org/2000/svg" xmlns:xlink="http://www.w3.org/1999/xlink" x="0px" y="0px" width="37.569px" height="30.733px" viewBox="0 0 37.569 30.733" enable-background="new 0 0 37.569 30.733" xml:space="preserve">
    <path d="M37.569,3.816c-1.382,0.613-2.868,1.027-4.427,1.214
    c1.592-0.954,2.814-2.465,3.389-4.265c-1.489,0.884-3.139,1.525-4.894,1.871c-1.406-1.498-3.41-2.434-5.626-2.434
    c-4.257,0-7.708,3.451-7.708,7.707c0,0.605,0.068,1.193,0.199,1.757C12.096,9.344,6.417,6.276,2.615,1.613
    C1.952,2.751,1.572,4.075,1.572,5.488c0,2.674,1.36,5.033,3.429,6.415c-1.264-0.04-2.452-0.387-3.492-0.964
    c0,0.032,0,0.064,0,0.097c0,3.734,2.657,6.85,6.183,7.558c-0.647,0.176-1.328,0.27-2.031,0.27c-0.497,0-0.98-0.048-1.45-0.138
    c0.981,3.062,3.827,5.291,7.2,5.353c-2.638,2.067-5.961,3.299-9.573,3.299c-0.622,0-1.235-0.036-1.838-0.107
    c3.411,2.187,7.462,3.462,11.815,3.462c14.178,0,21.93-11.744,21.93-21.93c0-0.334-0.007-0.666-0.022-0.997
    C35.229,6.719,36.536,5.362,37.569,3.816"/>
</svg>