<svg version="1.1" xmlns="http://www.w3.org/2000/svg" xmlns:xlink="http://www.w3.org/1999/xlink" x="0px" y="0px" width="288.477px" height="46px" viewBox="0 0 288.477 46" enable-background="new 0 0 288.477 46" xml:space="preserve">
    <polygon fill="#d0ac80" points="177.946,1.174 173.727,10.232 184.392,10.232 188.614,1.174 "/>
    <path fill="#d0ac80" d="M251.173,38.596l2.903-6.24h15.094c3.441,0,7.541-2.786,9.146-6.234l2.912-6.233
    c1.606-3.45,0.115-6.245-3.332-6.245h-19.512c-3.449,0-7.548,2.795-9.152,6.245l-8.717,18.707h-10.668l8.725-18.707
    c1.603-3.45,0.114-6.245-3.335-6.245h-35.539c-3.448,0-7.536,2.795-9.147,6.245l-8.727,18.707h-10.658l11.604-24.952h-4.405
    c-3.447,0-7.541,2.795-9.147,6.245l-8.715,18.707h-10.67L167.28,1.174h-10.663L139.169,38.59v0.006h-10.662l8.726-18.707
    c1.602-3.45,0.116-6.245-3.335-6.245h-5.955c-3.45,0-7.538,2.795-9.145,6.245h7.767l-8.738,18.707h-10.641l17.429-37.422H113.98
    L96.55,38.596H85.842l11.634-24.952H86.834L75.205,38.596H64.509L76.15,13.644H65.477L53.847,38.59v0.006H43.232V38.59
    l5.791-12.468c1.604-3.449,0.116-6.233-3.328-6.233h-20.31L31.17,7.408h15.908l-2.853,6.236h10.63l2.873-6.236
    c1.593-3.445,0.11-6.237-3.332-6.237H29.67c-3.443,0-7.541,2.792-9.142,6.237l-5.783,12.481c-1.61,3.436-0.121,6.233,3.327,6.233
    h20.312l-5.789,12.474H11.284l2.859-6.24H3.506l-2.86,6.24c-1.606,3.438-0.118,6.233,3.33,6.233h41.598
    c2.635,0,5.657-1.641,7.644-3.955c-0.167,2.314,1.322,3.955,3.959,3.955h31.099c2.63,0,5.651-1.641,7.647-3.955
    c-0.169,2.314,1.308,3.955,3.957,3.955h31.017c2.638,0,5.658-1.641,7.643-3.955c-0.165,2.314,1.319,3.955,3.959,3.955h9.725
    c2.642,0,5.658-1.641,7.654-3.955c-0.176,2.314,1.308,3.955,3.955,3.955h19.485c3.449,0,7.542-2.795,9.15-6.233l8.746-18.707h8.011
    l-11.624,24.94h10.679l11.608-24.94h8.023l-8.726,18.707c-1.608,3.438-0.118,6.233,3.324,6.233h9.73
    c2.641,0,5.652-1.641,7.641-3.955c-0.165,2.314,1.324,3.955,3.961,3.955h35.491c3.449,0,7.541-2.795,9.144-6.233H251.173z
    M259.902,19.889h10.656l-2.904,6.233h-10.658L259.902,19.889z"/>
</svg>