<svg xmlns="http://www.w3.org/2000/svg" width="288.477" height="88.829" viewBox="0 0 288.477 88.829"><path fill="#FDF7D9" d="M177.946.003l-4.219 9.058h10.665l4.222-9.058z"/><path fill="#FDF7D9" d="M251.173 37.425l2.903-6.24h15.094c3.441 0 7.541-2.786 9.146-6.234l2.912-6.233c1.606-3.45.115-6.245-3.332-6.245h-19.512c-3.449 0-7.548 2.795-9.152 6.245l-8.717 18.707h-10.668l8.725-18.707c1.603-3.45.114-6.245-3.335-6.245h-35.539c-3.448 0-7.536 2.795-9.147 6.245l-8.727 18.707h-10.658l11.604-24.952h-4.405c-3.447 0-7.541 2.795-9.147 6.245l-8.715 18.707h-10.67L167.28.003h-10.663l-17.448 37.416v.006h-10.662l8.726-18.707c1.602-3.45.116-6.245-3.335-6.245h-5.955c-3.45 0-7.538 2.795-9.145 6.245h7.767l-8.738 18.707h-10.641L124.615.003H113.98L96.55 37.425H85.842l11.634-24.952H86.834L75.205 37.425H64.509L76.15 12.473H65.477l-11.63 24.946v.006H43.232v-.006l5.791-12.468c1.604-3.449.116-6.233-3.328-6.233h-20.31L31.17 6.237h15.908l-2.853 6.236h10.63l2.873-6.236C59.321 2.792 57.838 0 54.396 0H29.67c-3.443 0-7.541 2.792-9.142 6.237l-5.783 12.481c-1.61 3.436-.121 6.233 3.327 6.233h20.312l-5.789 12.474H11.284l2.859-6.24H3.506l-2.86 6.24c-1.606 3.438-.118 6.233 3.33 6.233h41.598c2.635 0 5.657-1.641 7.644-3.955-.167 2.314 1.322 3.955 3.959 3.955h31.099c2.63 0 5.651-1.641 7.647-3.955-.169 2.314 1.308 3.955 3.957 3.955h31.017c2.638 0 5.658-1.641 7.643-3.955-.165 2.314 1.319 3.955 3.959 3.955h9.725c2.642 0 5.658-1.641 7.654-3.955-.176 2.314 1.308 3.955 3.955 3.955h19.485c3.449 0 7.542-2.795 9.15-6.233l8.746-18.707h8.011l-11.624 24.94h10.679l11.608-24.94h8.023l-8.726 18.707c-1.608 3.438-.118 6.233 3.324 6.233h9.73c2.641 0 5.652-1.641 7.641-3.955-.165 2.314 1.324 3.955 3.961 3.955h35.491c3.449 0 7.541-2.795 9.144-6.233h-37.303zm8.729-18.707h10.656l-2.904 6.233h-10.658l2.906-6.233z"/><path fill="#9D7649" d="M110.294 68.661c-.673 0-1.121.449-1.121 1.123l-.299 6.496c-.075 1.942-1.569 3.363-2.876 3.363-1.495 0-1.981-.861-2.092-2.206l-.635-7.282c-.038-.594-.374-1.119-1.234-1.119H91.395c-.336 0-.447.111-.447.336 0 .189.15.299.447.299h1.532c1.793 0 2.577 3.061 2.577 4.482 0 3.36-1.122 5.713-3.101 5.713-2.465 0-2.875-2.652-2.875-4.707v-9.262c3.063-1.568 5.005-4.255 5.005-7.282 0-2.165-1.42-3.885-3.585-3.885-2.429 0-3.662 1.646-3.662 3.474v10.86H3.581a.317.317 0 1 0 0 .635h83.705v3.22c0 3.175.411 7.582 5.117 7.582 3.772 0 5.491-3.474 5.491-6.348 0-2.092-.859-3.773-1.83-4.482h4.442c.335 0 .524.148.56.523l.673 7.429c.186 1.608 1.121 2.878 3.586 2.878-1.194 1.158-1.831 2.802-1.831 4.371 0 2.613 1.459 3.957 3.549 3.957 2.428 0 3.772-1.679 3.847-3.435l.522-15.61c0-.561-.374-1.123-1.118-1.123M89.528 58.204c0-1.494.336-2.801 1.718-2.801 1.568 0 2.39 1.532 2.39 3.287 0 3.249-2.166 5.34-4.108 6.499v-6.985zm19.232 27.527c-.037 1.121-.297 2.5-1.717 2.5-1.644 0-2.579-1.494-2.579-3.286 0-2.126 1.085-4.07 2.354-4.818.673-.41 1.719-.86 2.168-2.128l-.226 7.732zm34.915-17.742c2.69-.634 4.819-2.912 4.819-5.789 0-3.809-5.786-6.982-12.437-6.982-7.58 0-12.212 3.472-12.212 7.918 0 3.696 2.69 5.225 5.303 5.225 1.345 0 2.465-.708 2.465-1.94 0-.783-.484-1.495-1.194-1.495-.747 0-1.306.636-1.306 1.308 0 .598.185 1.083.447 1.345-.075.037-.224.037-.299.037-1.868 0-4.519-.931-4.519-4.48 0-4.222 4.779-7.061 11.315-7.061 5.753 0 9.936 2.764 9.936 6.125 0 3.324-1.794 5.491-4.557 5.491-.337 0-.561.187-.561.485 0 .337.3.485.599.485 4.108 0 7.245 2.279 7.245 5.006 0 3.136-2.24 6.05-6.349 6.05-2.278 0-4.184-1.271-6.722-2.764 1.494-1.719 2.464-3.923 2.652-5.976l.748-8.104c.148-1.794.558-2.317.782-2.726.224-.447.673-.859.673-1.199 0-.258-.15-.333-.411-.333-.636 0-2.764 1.866-3.025 3.921l-1.01 9.115c-.298 2.614-.931 3.583-1.679 4.703-1.793-.931-3.4-1.343-6.051-1.343-1.792 0-4.482 1.045-4.482 3.062 0 1.98 2.017 2.541 4.332 2.541 3.287 0 4.521-.673 6.201-2.242 2.426 1.271 4.706 2.242 7.992 2.242 6.647 0 9.076-3.924 9.076-6.947 0-3.624-4.519-5.452-7.771-5.678m-15.274 11.766c-3.138 0-3.659-.821-3.659-1.682 0-.97 1.382-2.017 3.585-2.017 1.792 0 3.361.897 5.006 1.794-1.533 1.532-2.84 1.905-4.932 1.905m33.349-10.084h2.168c.222 0 .298-.152.298-.337 0-.187-.187-.298-.376-.298h-3.696c-.335 0-.486.111-.486.298 0 .185.187.337.486.337 1.045 0 2.315 1.906 2.315 4.965 0 2.84-.821 5.23-3.024 5.23-2.689 0-3.063-2.801-3.063-5.23 0-2.875.786-5.002 2.576-5.6.188-.04.413-.151.413-.375 0-.148-.149-.262-.413-.262-1.419 0-4.929 1.83-4.929 6.237 0 3.028 1.943 5.865 5.416 5.865 3.25 0 5.416-2.688 5.416-5.865 0-2.537-1.644-4.293-3.101-4.965m11.352 3.248c-1.941-1.045-2.502-1.68-2.502-3.063 0-.633 1.344-.371 1.344-1.753 0-.748-.335-1.235-1.046-1.235-.857 0-1.195.897-1.231 2.541l-1.719 3.735c-.037.111-.073.189-.073.261 0 .226.185.262.298.262.112 0 .224-.036.299-.225l1.344-2.802c.336 1.309 1.306 2.129 2.128 2.765 1.271.934 1.795 1.98 1.795 3.285 0 1.457-.822 3.176-2.767 3.176-.856 0-1.865-.149-2.388-.523.298-.261.634-.971.634-1.53 0-.824-.486-1.459-1.307-1.459-.71 0-1.271.673-1.271 1.459 0 1.942 1.905 2.688 4.332 2.688 2.841 0 5.118-1.831 5.118-3.922 0-1.643-1.157-2.649-2.988-3.66m109.57-3.879l-87.277-.004c-.336 0-.485.111-.485.298 0 .185.188.337.485.337 1.047 0 2.317 1.906 2.317 4.965 0 2.84-.821 5.23-3.026 5.23-2.69 0-3.063-2.801-3.063-5.23 0-2.875.783-5.002 2.579-5.6.185-.04.409-.151.409-.375 0-.148-.149-.262-.409-.262-1.422 0-4.932 1.83-4.932 6.237 0 1.499.478 2.949 1.38 4.034l-.108.039c-.709.411-1.902 1.008-4.632 1.008-3.322 0-5.488-2.466-5.488-5.081 0-2.95 1.38-5.34 3.434-5.34.785 0 1.12.15 1.419.299-.26.3-.522.86-.522 1.382 0 1.007.486 1.57 1.345 1.57.745 0 1.196-.749 1.196-1.57 0-1.121-.973-2.316-3.438-2.316-3.175 0-5.788 2.54-5.788 5.975 0 3.998 2.912 5.865 7.171 5.865 1.829 0 3.549-.334 4.295-.635.592-.218 1.23-.54 1.428-.857.906.912 2.158 1.492 3.724 1.492 3.249 0 5.415-2.688 5.415-5.865 0-2.537-1.642-4.293-3.101-4.965l85.672.004a.318.318 0 1 0 0-.635"/></svg>