<svg version="1.1" xmlns="http://www.w3.org/2000/svg" xmlns:xlink="http://www.w3.org/1999/xlink" x="0px" y="0px" width="288.477px" height="88.829px" viewBox="0 0 288.477 88.829" enable-background="new 0 0 288.477 88.829" xml:space="preserve">
    <polygon fill="#FDF7D9" points="177.946,0.003 173.727,9.061 184.392,9.061 188.614,0.003 "/>
    <path fill="#FDF7D9" d="M251.173,37.425l2.903-6.24h15.094c3.441,0,7.541-2.786,9.146-6.234
        l2.912-6.233c1.606-3.45,0.115-6.245-3.332-6.245h-19.512c-3.449,0-7.548,2.795-9.152,6.245l-8.717,18.707h-10.668l8.725-18.707
        c1.603-3.45,0.114-6.245-3.335-6.245h-35.539c-3.448,0-7.536,2.795-9.147,6.245l-8.727,18.707h-10.658l11.604-24.952h-4.405
        c-3.447,0-7.541,2.795-9.147,6.245l-8.715,18.707h-10.67L167.28,0.003h-10.663l-17.448,37.416v0.006h-10.662l8.726-18.707
        c1.602-3.45,0.116-6.245-3.335-6.245h-5.955c-3.45,0-7.538,2.795-9.145,6.245h7.767l-8.738,18.707h-10.641l17.429-37.422H113.98
        L96.55,37.425H85.842l11.634-24.952H86.834L75.205,37.425H64.509L76.15,12.473H65.477l-11.63,24.946v0.006H43.232v-0.006
        l5.791-12.468c1.604-3.449,0.116-6.233-3.328-6.233h-20.31L31.17,6.237h15.908l-2.853,6.236h10.63l2.873-6.236
        C59.321,2.792,57.838,0,54.396,0H29.67c-3.443,0-7.541,2.792-9.142,6.237l-5.783,12.481c-1.61,3.436-0.121,6.233,3.327,6.233
        h20.312l-5.789,12.474H11.284l2.859-6.24H3.506l-2.86,6.24c-1.606,3.438-0.118,6.233,3.33,6.233h41.598
        c2.635,0,5.657-1.641,7.644-3.955c-0.167,2.314,1.322,3.955,3.959,3.955h31.099c2.63,0,5.651-1.641,7.647-3.955
        c-0.169,2.314,1.308,3.955,3.957,3.955h31.017c2.638,0,5.658-1.641,7.643-3.955c-0.165,2.314,1.319,3.955,3.959,3.955h9.725
        c2.642,0,5.658-1.641,7.654-3.955c-0.176,2.314,1.308,3.955,3.955,3.955h19.485c3.449,0,7.542-2.795,9.15-6.233l8.746-18.707h8.011
        l-11.624,24.94h10.679l11.608-24.94h8.023l-8.726,18.707c-1.608,3.438-0.118,6.233,3.324,6.233h9.73
        c2.641,0,5.652-1.641,7.641-3.955c-0.165,2.314,1.324,3.955,3.961,3.955h35.491c3.449,0,7.541-2.795,9.144-6.233H251.173z
        M259.902,18.718h10.656l-2.904,6.233h-10.658L259.902,18.718z"/>
    <path fill="#9D7649" d="M110.294,68.661c-0.673,0-1.121,0.449-1.121,1.123l-0.299,6.496
        c-0.075,1.942-1.569,3.363-2.876,3.363c-1.495,0-1.981-0.861-2.092-2.206l-0.635-7.282c-0.038-0.594-0.374-1.119-1.234-1.119
        H91.395c-0.336,0-0.447,0.111-0.447,0.336c0,0.189,0.15,0.299,0.447,0.299h1.532c1.793,0,2.577,3.061,2.577,4.482
        c0,3.36-1.122,5.713-3.101,5.713c-2.465,0-2.875-2.652-2.875-4.707v-9.262c3.063-1.568,5.005-4.255,5.005-7.282
        c0-2.165-1.42-3.885-3.585-3.885c-2.429,0-3.662,1.646-3.662,3.474v10.86H3.581c-0.176,0-0.319,0.142-0.319,0.32
        c0,0.174,0.143,0.315,0.319,0.315h83.705v3.22c0,3.175,0.411,7.582,5.117,7.582c3.772,0,5.491-3.474,5.491-6.348
        c0-2.092-0.859-3.773-1.83-4.482h4.442c0.335,0,0.524,0.148,0.56,0.523l0.673,7.429c0.186,1.608,1.121,2.878,3.586,2.878
        c-1.194,1.158-1.831,2.802-1.831,4.371c0,2.613,1.459,3.957,3.549,3.957c2.428,0,3.772-1.679,3.847-3.435l0.522-15.61
        C111.412,69.223,111.038,68.661,110.294,68.661 M89.528,58.204c0-1.494,0.336-2.801,1.718-2.801c1.568,0,2.39,1.532,2.39,3.287
        c0,3.249-2.166,5.34-4.108,6.499V58.204z M108.76,85.731c-0.037,1.121-0.297,2.5-1.717,2.5c-1.644,0-2.579-1.494-2.579-3.286
        c0-2.126,1.085-4.07,2.354-4.818c0.673-0.41,1.719-0.86,2.168-2.128L108.76,85.731z M143.675,67.989
        c2.69-0.634,4.819-2.912,4.819-5.789c0-3.809-5.786-6.982-12.437-6.982c-7.58,0-12.212,3.472-12.212,7.918
        c0,3.696,2.69,5.225,5.303,5.225c1.345,0,2.465-0.708,2.465-1.94c0-0.783-0.484-1.495-1.194-1.495
        c-0.747,0-1.306,0.636-1.306,1.308c0,0.598,0.185,1.083,0.447,1.345c-0.075,0.037-0.224,0.037-0.299,0.037
        c-1.868,0-4.519-0.931-4.519-4.48c0-4.222,4.779-7.061,11.315-7.061c5.753,0,9.936,2.764,9.936,6.125
        c0,3.324-1.794,5.491-4.557,5.491c-0.337,0-0.561,0.187-0.561,0.485c0,0.337,0.3,0.485,0.599,0.485
        c4.108,0,7.245,2.279,7.245,5.006c0,3.136-2.24,6.05-6.349,6.05c-2.278,0-4.184-1.271-6.722-2.764
        c1.494-1.719,2.464-3.923,2.652-5.976l0.748-8.104c0.148-1.794,0.558-2.317,0.782-2.726c0.224-0.447,0.673-0.859,0.673-1.199
        c0-0.258-0.15-0.333-0.411-0.333c-0.636,0-2.764,1.866-3.025,3.921l-1.01,9.115c-0.298,2.614-0.931,3.583-1.679,4.703
        c-1.793-0.931-3.4-1.343-6.051-1.343c-1.792,0-4.482,1.045-4.482,3.062c0,1.98,2.017,2.541,4.332,2.541
        c3.287,0,4.521-0.673,6.201-2.242c2.426,1.271,4.706,2.242,7.992,2.242c6.647,0,9.076-3.924,9.076-6.947
        C151.446,70.043,146.927,68.215,143.675,67.989 M128.401,79.755c-3.138,0-3.659-0.821-3.659-1.682c0-0.97,1.382-2.017,3.585-2.017
        c1.792,0,3.361,0.897,5.006,1.794C131.8,79.382,130.493,79.755,128.401,79.755 M161.75,69.671h2.168
        c0.222,0,0.298-0.152,0.298-0.337c0-0.187-0.187-0.298-0.376-0.298h-3.696c-0.335,0-0.486,0.111-0.486,0.298
        c0,0.185,0.187,0.337,0.486,0.337c1.045,0,2.315,1.906,2.315,4.965c0,2.84-0.821,5.23-3.024,5.23c-2.689,0-3.063-2.801-3.063-5.23
        c0-2.875,0.786-5.002,2.576-5.6c0.188-0.04,0.413-0.151,0.413-0.375c0-0.148-0.149-0.262-0.413-0.262
        c-1.419,0-4.929,1.83-4.929,6.237c0,3.028,1.943,5.865,5.416,5.865c3.25,0,5.416-2.688,5.416-5.865
        C164.851,72.099,163.207,70.343,161.75,69.671 M173.102,72.919c-1.941-1.045-2.502-1.68-2.502-3.063
        c0-0.633,1.344-0.371,1.344-1.753c0-0.748-0.335-1.235-1.046-1.235c-0.857,0-1.195,0.897-1.231,2.541l-1.719,3.735
        c-0.037,0.111-0.073,0.189-0.073,0.261c0,0.226,0.185,0.262,0.298,0.262c0.112,0,0.224-0.036,0.299-0.225l1.344-2.802
        c0.336,1.309,1.306,2.129,2.128,2.765c1.271,0.934,1.795,1.98,1.795,3.285c0,1.457-0.822,3.176-2.767,3.176
        c-0.856,0-1.865-0.149-2.388-0.523c0.298-0.261,0.634-0.971,0.634-1.53c0-0.824-0.486-1.459-1.307-1.459
        c-0.71,0-1.271,0.673-1.271,1.459c0,1.942,1.905,2.688,4.332,2.688c2.841,0,5.118-1.831,5.118-3.922
        C176.09,74.936,174.933,73.93,173.102,72.919 M282.672,69.04l-87.277-0.004c-0.336,0-0.485,0.111-0.485,0.298
        c0,0.185,0.188,0.337,0.485,0.337c1.047,0,2.317,1.906,2.317,4.965c0,2.84-0.821,5.23-3.026,5.23c-2.69,0-3.063-2.801-3.063-5.23
        c0-2.875,0.783-5.002,2.579-5.6c0.185-0.04,0.409-0.151,0.409-0.375c0-0.148-0.149-0.262-0.409-0.262
        c-1.422,0-4.932,1.83-4.932,6.237c0,1.499,0.478,2.949,1.38,4.034c-0.034,0.013-0.066,0.024-0.108,0.039
        c-0.709,0.411-1.902,1.008-4.632,1.008c-3.322,0-5.488-2.466-5.488-5.081c0-2.95,1.38-5.34,3.434-5.34
        c0.785,0,1.12,0.15,1.419,0.299c-0.26,0.3-0.522,0.86-0.522,1.382c0,1.007,0.486,1.57,1.345,1.57c0.745,0,1.196-0.749,1.196-1.57
        c0-1.121-0.973-2.316-3.438-2.316c-3.175,0-5.788,2.54-5.788,5.975c0,3.998,2.912,5.865,7.171,5.865
        c1.829,0,3.549-0.334,4.295-0.635c0.592-0.218,1.23-0.54,1.428-0.857c0.906,0.912,2.158,1.492,3.724,1.492
        c3.249,0,5.415-2.688,5.415-5.865c0-2.537-1.642-4.293-3.101-4.965l85.672,0.004c0.174,0,0.318-0.141,0.318-0.315
        C282.99,69.182,282.846,69.04,282.672,69.04"/>
</svg>