<?xml version="1.0" encoding="UTF-8"?>
<!DOCTYPE svg PUBLIC "-//W3C//DTD SVG 1.1//EN" "http://www.w3.org/Graphics/SVG/1.1/DTD/svg11.dtd">
<svg xmlns="http://www.w3.org/2000/svg">
<symbol id="filters" viewBox="0 0 21.125 21">
    <path fill="none" stroke="#181716" stroke-linecap="round" stroke-miterlimit="10" d="M12.54 10.625h7.811M.812 10.625h7.812M7.554 2.869h12.797M.812 2.869h2.825"/>
    <circle fill="none" stroke="#181716" stroke-linecap="round" stroke-miterlimit="10" cx="5.595" cy="2.869" r="1.958"/>
    <circle fill="none" stroke="#181716" stroke-linecap="round" stroke-miterlimit="10" cx="10.582" cy="10.625" r="1.958"/>
    <path fill="none" stroke="#181716" stroke-linecap="round" stroke-miterlimit="10" d="M17.527 18.381h2.824M.812 18.381H13.61"/>
    <circle fill="none" stroke="#181716" stroke-linecap="round" stroke-miterlimit="10" cx="15.569" cy="18.381" r="1.958"/>
</symbol>
<symbol id="search" viewBox="0 0 23.833 23.667">
    <circle cx="10.578" cy="10.578" r="9.578"/>
    <path d="M22.771 22.771L17.54 17.54"/>
</symbol>
<symbol id="social-fb" viewBox="0 0 15.49 30.733">
    <path d="M15.491 5.584h-3.672c-.679 0-1.368.712-1.368 1.24v3.538h4.802c-.192 2.712-.588 5.309-.588 5.309h-4.237v14.932H4.113V15.67H0v-5.289h4.113V6.15c0-.775-.156-5.951 6.469-5.951h4.909v5.385z"/>
</symbol>
<symbol id="social-inst" viewBox="0 0 30.474 30.733">
    <path fill-rule="evenodd" clip-rule="evenodd" d="M3.912.138h22.651a3.922 3.922 0 0 1 3.911 3.912v22.652a3.923 3.923 0 0 1-3.911 3.912H3.912A3.925 3.925 0 0 1 0 26.701V4.049A3.923 3.923 0 0 1 3.912.138zm18.287 3.386c-.755 0-1.372.617-1.372 1.372V8.18c0 .755.616 1.372 1.372 1.372h3.444c.755 0 1.372-.617 1.372-1.372V4.896c0-.755-.617-1.372-1.372-1.372h-3.444zm4.832 9.501h-2.682a8.94 8.94 0 0 1 .39 2.615c0 5.069-4.241 9.177-9.472 9.177s-9.472-4.109-9.472-9.177c0-.909.137-1.786.391-2.615h-2.8v12.873c0 .667.545 1.212 1.211 1.212h21.221c.667 0 1.212-.545 1.212-1.212V13.025h.001zM15.266 9.379c-3.38 0-6.12 2.655-6.12 5.93s2.74 5.93 6.12 5.93 6.12-2.655 6.12-5.93-2.739-5.93-6.12-5.93z"/>
</symbol>
<symbol id="social-pint" viewBox="0 0 23.972 30.733">
    <path d="M9.854 20.38c-.81 4.242-1.797 8.309-4.724 10.433-.904-6.411 1.327-11.227 2.362-16.339-1.766-2.972.213-8.955 3.937-7.48 4.583 1.812-3.968 11.051 1.773 12.205 5.994 1.204 8.44-10.4 4.724-14.174-5.371-5.449-15.633-.124-14.372 7.678.307 1.907 2.278 2.485.788 5.118C.905 17.059-.121 14.348.01 10.734.224 4.819 5.326.676 10.445.104c6.472-.725 12.547 2.376 13.386 8.465.945 6.873-2.922 14.316-9.842 13.78-1.877-.146-2.664-1.075-4.135-1.969"/>
</symbol>
<symbol id="social-tweet" viewBox="0 0 37.569 30.733">
    <path d="M37.569 3.816a15.433 15.433 0 0 1-4.427 1.214A7.727 7.727 0 0 0 36.531.765a15.425 15.425 0 0 1-4.894 1.871A7.7 7.7 0 0 0 26.011.202a7.708 7.708 0 0 0-7.708 7.707c0 .605.068 1.193.199 1.757-6.406-.322-12.085-3.39-15.887-8.053a7.674 7.674 0 0 0-1.043 3.875 7.701 7.701 0 0 0 3.429 6.415 7.685 7.685 0 0 1-3.492-.964v.097a7.713 7.713 0 0 0 6.183 7.558 7.728 7.728 0 0 1-3.481.132 7.715 7.715 0 0 0 7.2 5.353 15.466 15.466 0 0 1-9.573 3.299A15.71 15.71 0 0 1 0 27.271a21.813 21.813 0 0 0 11.815 3.462c14.178 0 21.93-11.744 21.93-21.93 0-.334-.007-.666-.022-.997a15.656 15.656 0 0 0 3.846-3.99"/>
</symbol>
<symbol id="social-vk" viewBox="0 0 53.479 30.733">
    <path d="M47.681 21.284c4.287 3.979 5.181 5.899 5.313 6.151 1.777 2.935-1.95 3.171-1.95 3.171l-7.15.101s-1.541.293-3.551-1.086c-2.672-1.834-5.196-6.606-7.162-5.974-1.984.631-1.924 4.918-1.924 4.918s.015.616-.44 1.101c-.5.526-1.454.319-1.454.319h-3.198s-7.06.736-13.271-5.738C6.131 17.203.142 3.35.142 3.35s-.338-.838.03-1.293c.425-.5 1.571-.485 1.571-.485l7.646-.03s.718.132 1.232.5c.425.323.661.909.661.909s1.232 3.126 2.874 5.944c3.186 5.52 4.667 6.722 5.753 6.136 1.586-.864 1.116-7.793 1.116-7.793s.03-2.525-.804-3.641c-.631-.864-1.837-1.131-2.363-1.187-.443-.06.263-1.06 1.187-1.514 1.379-.673 3.802-.703 6.677-.673 2.232.011 2.878.162 3.742.364 2.645.631 1.747 3.096 1.747 8.984 0 1.894-.338 4.55 1.014 5.429.586.368 2.025.06 5.606-6.031 1.687-2.878 2.965-6.267 2.965-6.267s.278-.601.706-.868c.44-.263 1.041-.177 1.041-.177l8.045-.056s2.42-.278 2.818.808c.41 1.142-.913 3.814-4.201 8.187-5.398 7.208-6 6.536-1.524 10.688"/>
</symbol>
<symbol id="wishlist" viewBox="0 0 24.125 22.5">
    <path d="M12.13 3.427C8.481-1.091.088.235.711 7.789 1.447 16.71 12.13 21.767 12.13 21.767S22.814 16.71 23.55 7.789c.622-7.554-7.77-8.88-11.42-4.362z"/>
</symbol>
</svg>